<svg xmlns="http://www.w3.org/2000/svg" width="63.714" height="63.714" viewBox="0 0 63.714 63.714">
  <path id="gmail" d="M31.857,0A31.857,31.857,0,1,0,63.714,31.857,31.859,31.859,0,0,0,31.857,0ZM47.788,44.911a2.653,2.653,0,0,0,2.652-2.652V21.235a2.655,2.655,0,0,0-2.652-2.652H15.926a2.655,2.655,0,0,0-2.652,2.652V42.258a2.655,2.655,0,0,0,2.652,2.652ZM31.857,35.486,17.389,25.446,17.359,43.36H46.294V25.446L31.857,35.486ZM45.593,20.131c-4.054,2.825-13.736,9.647-13.736,9.647L18.044,20.131H45.593Z" fill="#fccd6b" fill-rule="evenodd"/>
</svg>
