<svg xmlns="http://www.w3.org/2000/svg" width="192.346" height="193.617" viewBox="0 0 192.346 193.617">
  <g id="Group_78" data-name="Group 78" transform="translate(-1250.244 -2405.764)">
    <g id="Group_76" data-name="Group 76" transform="translate(1250.244 2435.284)">
      <path id="Path_95" data-name="Path 95" d="M462.444,68.281S414.89,84.422,414.465,87.03s13.391,36.363,17.684,36.448,36.61-10.844,36.61-10.844S465.126,66.042,462.444,68.281Z" transform="translate(-414.455 -68.202)" fill="#b0b1ea" fill-rule="evenodd"/>
      <path id="Path_96" data-name="Path 96" d="M464.761,76.144s-41.814,13.4-42.185,15.577c-.292,1.711,7.173,19.486,12.218,27.062.724-2.636,2.031-7.08,2.746-7.564,1.024-.693,9.358,2.943,9.358,2.943s6.12-13.048,7.425-14.9c1.009-1.429,10.571.481,14.863,1.423C468.026,89.493,466.222,74.989,464.761,76.144Z" transform="translate(-418.953 -71.501)" fill="#8386d8" fill-rule="evenodd"/>
      <path id="Path_97" data-name="Path 97" d="M477.094,102.935c-2.542.217-4.488,2.757-4.348,5.673s2.312,5.1,4.853,4.887,4.487-2.756,4.348-5.673S479.634,102.719,477.094,102.935Z" transform="translate(-456.895 -82.741)" fill="#b0b1ea" fill-rule="evenodd"/>
    </g>
    <g id="Group_77" data-name="Group 77" transform="translate(1346.512 2405.764)">
      <path id="Path_95-2" data-name="Path 95" d="M425.628,68.327s84.135,25.78,84.887,29.945-23.691,58.077-31.288,58.213-64.773-17.32-64.773-17.32S420.883,64.751,425.628,68.327Z" transform="translate(-414.455 -68.202)" fill="#b0b1ea" fill-rule="evenodd"/>
      <path id="Path_96-2" data-name="Path 96" d="M430.4,76.183s73.98,21.4,74.635,24.879c.517,2.732-12.692,31.122-21.617,43.222-1.28-4.21-3.593-11.308-4.859-12.08C476.746,131.1,462,136.9,462,136.9s-10.827-20.839-13.136-23.793c-1.784-2.283-18.7.769-26.3,2.273C424.621,97.5,427.813,74.337,430.4,76.183Z" transform="translate(-415.366 -68.767)" fill="#8386d8" fill-rule="evenodd"/>
      <path id="Path_97-2" data-name="Path 97" d="M481.337,102.944A8.551,8.551,0,0,1,489.03,112a8.07,8.07,0,0,1-8.587,7.805,8.553,8.553,0,0,1-7.693-9.06A8.072,8.072,0,0,1,481.337,102.944Z" transform="translate(-420.996 -70.691)" fill="#b0b1ea" fill-rule="evenodd"/>
    </g>
    <g id="Group_75" data-name="Group 75" transform="translate(1260.632 2413.994)">
      <path id="Path_128" data-name="Path 128" d="M254.158,155.235s3.538-11.1-1.632-14.318c-3.286-1.688-3.746.32-3.746.32s-2.879-7.75-13.526-5.159c-6.9,1.678-9.071-1.876-9.071-1.876s-.065,9.834,4.684,12.758c3.439,2.949,2.12,10.919,2.12,10.919Z" transform="translate(-173.282 -134.203)" fill="#937b63"/>
      <path id="Path_129" data-name="Path 129" d="M258.767,419.842s19.167.575,24.517,5.514c5.625,5.193,11.528,13.3-12.69,13.146s-45.687-6.822-66-4.706-36.98,5.762-41.836,4.954,29.754-17.389,29.754-17.389l64.256,2.358Z" transform="translate(-146.526 -253.818)" fill="#c7c7c7" opacity="0.87" style="mix-blend-mode: multiply;isolation: isolate"/>
      <path id="Path_130" data-name="Path 130" d="M258.217,343.918l-24.163-2.428-24.163,2.428s-1.436,11.417-6.1,17.507l30.264,10.869,30.264-10.869C259.652,355.334,258.217,343.918,258.217,343.918Z" transform="translate(-163.904 -221.007)" fill="#a87d1d"/>
      <path id="Path_131" data-name="Path 131" d="M250.393,371.951l.954.343.953-.342c5.568-12.81,4.236-27.182,3.905-29.974l-4.859-.488-6.219.625C245.005,345.184,244.8,359.224,250.393,371.951Z" transform="translate(-181.198 -221.007)" fill="#a87d1d" style="mix-blend-mode: multiply;isolation: isolate"/>
      <path id="Path_132" data-name="Path 132" d="M214.049,344.849s25.426,11.214,49.982,6.341a57.189,57.189,0,0,1-1.518-7.272L238.35,341.49l-19.41,1.95-4.891,1.409Z" transform="translate(-168.2 -221.007)" fill="#895436" style="mix-blend-mode: multiply;isolation: isolate"/>
      <path id="Path_134" data-name="Path 134" d="M237.572,204.055,217.6,211.337l-3.31,75.028s7.061,3.31,24.163,3.31V205.22Z" transform="translate(-168.3 -163.454)" fill="#fff"/>
      <path id="Path_135" data-name="Path 135" d="M256.736,204.055l19.975,7.282,3.31,75.028s-7.061,3.31-24.163,3.31V205.22Z" transform="translate(-185.709 -163.454)" fill="#fff"/>
      <path id="Path_136" data-name="Path 136" d="M195.238,216.584l-.092.033a21.648,21.648,0,0,0-12.807,12.318l-21.442,51.9,18.233,2.173,15.435-37.83Z" transform="translate(-145.942 -168.701)" fill="#fbcaef"/>
      <path id="Path_137" data-name="Path 137" d="M291.735,216.584l.093.033a21.646,21.646,0,0,1,12.807,12.318l21.442,51.9-18.233,2.173-15.435-37.83Z" transform="translate(-200.732 -168.701)" fill="#f9b3e8"/>
      <path id="Path_138" data-name="Path 138" d="M312.961,249.087l-8.326-20.152a21.646,21.646,0,0,0-12.807-12.318l-.093-.033.674,28.592,4.372,10.717A28.159,28.159,0,0,1,312.961,249.087Z" transform="translate(-200.732 -168.701)" fill="#f7f8f6"/>
      <path id="Path_139" data-name="Path 139" d="M183.462,249.087l8.326-20.152A21.648,21.648,0,0,1,204.6,216.617l.092-.033-.674,28.592-4.373,10.717A28.157,28.157,0,0,0,183.462,249.087Z" transform="translate(-155.392 -168.701)" fill="#fff"/>
      <path id="Path_140" data-name="Path 140" d="M273.412,265.906a22.13,22.13,0,0,1-1.3-2.178l.673,1.19s-7.6,42.183-27.917,49.579h0c1.954.1,4.077.167,6.391.167,17.1,0,24.163-3.31,24.163-3.31Z" transform="translate(-181.104 -188.443)" fill="#f7f8f6"/>
      <path id="Path_143" data-name="Path 143" d="M252.021,206.931h-.108a5.347,5.347,0,0,1-5.347-5.346V188.819h10.8v12.766A5.347,5.347,0,0,1,252.021,206.931Z" transform="translate(-181.817 -157.074)" fill="#fbcaef"/>
      <path id="Path_144" data-name="Path 144" d="M257.281,198.665c.031,0,.056,0,.087,0v-9.842h-5.042l-5.759,2.081A11.062,11.062,0,0,0,257.281,198.665Z" transform="translate(-181.817 -157.074)" fill="#f9b3e8"/>
      <path id="Path_145" data-name="Path 145" d="M272.477,173.125a3.468,3.468,0,1,1-3.469-3.468A3.469,3.469,0,0,1,272.477,173.125Z" transform="translate(-189.763 -149.05)" fill="#f9b3e8"/>
      <path id="Path_147" data-name="Path 147" d="M234.242,173.125a3.468,3.468,0,1,0,3.468-3.468A3.469,3.469,0,0,0,234.242,173.125Z" transform="translate(-176.657 -149.05)" fill="#fbcaef"/>
      <path id="Path_149" data-name="Path 149" d="M255.388,154.754H243.179l-3.021,6.6.508,6.533c.271,3.487,2.524,9.506,5.693,10.985a6.206,6.206,0,0,0,5.85,0c3.168-1.479,5.421-7.5,5.693-10.985l.508-6.533Z" transform="translate(-179.134 -142.809)" fill="#fbcaef"/>
      <path id="Path_150" data-name="Path 150" d="M261.246,169.011a9.454,9.454,0,0,0,4.365,0" transform="translate(-187.965 -148.779)" fill="none" stroke="#2f2f35" stroke-linecap="round" stroke-miterlimit="10" stroke-width="1.336"/>
      <path id="Path_151" data-name="Path 151" d="M260.107,162.466s2.991-.5,4.789.539" transform="translate(-187.488 -145.988)" fill="#937b63" stroke="#937b63" stroke-linecap="round" stroke-miterlimit="10" stroke-width="2.672"/>
      <path id="Path_152" data-name="Path 152" d="M247.325,169.011a9.459,9.459,0,0,1-4.366,0" transform="translate(-180.307 -148.779)" fill="none" stroke="#2f2f35" stroke-linecap="round" stroke-miterlimit="10" stroke-width="1.336"/>
      <path id="Path_153" data-name="Path 153" d="M248.158,162.466s-2.992-.5-4.789.539" transform="translate(-180.479 -145.988)" fill="#937b63" stroke="#937b63" stroke-linecap="round" stroke-miterlimit="10" stroke-width="2.672"/>
      <g id="Group_51" data-name="Group 51" transform="translate(0.096 130.582)">
        <path id="Path_155" data-name="Path 155" d="M226.24,380.543,157.207,359.6a16.878,16.878,0,0,0-21.229,11.882l-.091.349A16.875,16.875,0,0,0,149.3,392.722c25.524,4.462,71.786,12.049,96.134,12.977l10.263,6.842a4.007,4.007,0,0,0,4.966-.411l.053-.049a4.009,4.009,0,0,0,.184-5.665l-1.6-1.709a14.882,14.882,0,0,0-8.474-9.93c-7.047-2.979-7.708-10.261-9.364-14.233S229.219,374.585,226.24,380.543Z" transform="translate(-135.333 -358.866)" fill="#b0b1ea"/>
        <path id="Path_156" data-name="Path 156" d="M135.978,371.48A16.878,16.878,0,0,1,157.207,359.6l23.411,7.1c-3.526,4.4-8.178,13.33-8.318,29.9-8.547-1.39-16.455-2.739-23-3.882a16.876,16.876,0,0,1-13.417-20.893Z" transform="translate(-135.333 -358.866)" fill="#b0b1ea"/>
        <path id="Path_157" data-name="Path 157" d="M157.755,393.127a17.262,17.262,0,0,1-1.866,7.822c-2.312-.4-4.523-.779-6.586-1.14a16.876,16.876,0,0,1-13.417-20.893l.091-.349a17.039,17.039,0,0,1,.824-2.4,17.342,17.342,0,0,1,20.953,16.959Z" transform="translate(-135.333 -365.952)" fill="#8386d8" opacity="0.67" style="mix-blend-mode: multiply;isolation: isolate"/>
        <path id="Path_158" data-name="Path 158" d="M289.8,412.675s-.993,5.785-10.592,3.72" transform="translate(-195.582 -381.399)" fill="#b0b1ea" stroke="#7b3c38" stroke-miterlimit="10" stroke-width="1.139"/>
        <path id="Path_159" data-name="Path 159" d="M250.057,387.7s-14.707-.662-45.822-6.212c-25.207-4.5-32.6-17.4-34.5-22.136a16.978,16.978,0,0,1,1.88.452l69.032,20.945c2.979-5.958,13.571-3.972,15.226,0s2.317,11.254,9.364,14.233a14.882,14.882,0,0,1,8.474,9.93s-7.246-4.634-11.826-5.628S250.057,387.7,250.057,387.7Z" transform="translate(-149.738 -359.067)" fill="#8386d8" opacity="0.28" style="mix-blend-mode: multiply;isolation: isolate"/>
      </g>
      <path id="Path_160" data-name="Path 160" d="M301.035,417.216s12.676,12.129,23.483,7.138a3.149,3.149,0,0,0,1.187-4.721c-9.1-12.364-20.58-25.833-24.955-30.895a4.286,4.286,0,0,0-4.437-1.312l-12.45,3.617Z" transform="translate(-197.436 -240.172)" fill="#9ac1bd"/>
      <path id="Path_161" data-name="Path 161" d="M275.272,391.165l-11.924-3.618,9.032,27.795,20.064,2Z" transform="translate(-188.845 -240.294)" fill="#e2e2e2"/>
      <path id="Path_162" data-name="Path 162" d="M194.225,380.543,263.258,359.6a16.877,16.877,0,0,1,21.229,11.882l.092.349a16.875,16.875,0,0,1-13.417,20.893c-25.523,4.462-71.786,12.049-96.134,12.977l-10.263,6.842a4.007,4.007,0,0,1-4.966-.411l-.053-.049a4.009,4.009,0,0,1-.184-5.665l1.6-1.709a14.882,14.882,0,0,1,8.474-9.93c7.047-2.979,7.709-10.261,9.364-14.233S191.246,374.585,194.225,380.543Z" transform="translate(-144.929 -228.283)" fill="#fbcaef"/>
      <path id="Path_163" data-name="Path 163" d="M343.111,371.48A16.877,16.877,0,0,0,321.882,359.6l-23.41,7.1c3.527,4.4,8.177,13.33,8.318,29.9,8.547-1.39,16.455-2.739,23-3.882A16.875,16.875,0,0,0,343.2,371.829Z" transform="translate(-203.554 -228.283)" fill="#b0b1ea"/>
      <path id="Path_164" data-name="Path 164" d="M337.806,393.127a17.262,17.262,0,0,0,1.866,7.822c2.312-.4,4.523-.779,6.585-1.14a16.875,16.875,0,0,0,13.417-20.893l-.092-.349a16.963,16.963,0,0,0-.824-2.4,17.342,17.342,0,0,0-20.953,16.959Z" transform="translate(-220.025 -235.37)" fill="#8386d8" opacity="0.67" style="mix-blend-mode: multiply;isolation: isolate"/>
      <path id="Path_165" data-name="Path 165" d="M186.748,387.7s14.707-.662,45.822-6.212c25.208-4.5,32.6-17.4,34.5-22.136a17.033,17.033,0,0,0-1.879.452l-69.033,20.945c-2.979-5.958-13.571-3.972-15.226,0s-2.317,11.254-9.364,14.233a14.882,14.882,0,0,0-8.474,9.93s7.246-4.634,11.826-5.628S186.748,387.7,186.748,387.7Z" transform="translate(-146.863 -228.485)" fill="#f9b3e8" opacity="0.28" style="mix-blend-mode: multiply;isolation: isolate"/>
      <path id="Path_166" data-name="Path 166" d="M159.874,394.6l-10.348-1.919a17.04,17.04,0,0,1-14.111-19.7l.063-.366a17.04,17.04,0,0,1,21.946-13.373l19.539,6.193" transform="translate(-135.168 -228.103)" fill="none" stroke="#fff" stroke-miterlimit="10" stroke-width="1.114" opacity="0.57"/>
      <path id="Path_167" data-name="Path 167" d="M249.423,178.62a.452.452,0,0,0-.362.724,4.649,4.649,0,0,0,7.832,0,.452.452,0,0,0-.362-.724Z" transform="translate(-182.823 -152.803)" fill="#fff"/>
      <path id="Path_168" data-name="Path 168" d="M256.2,168.76v3.591a2.38,2.38,0,0,0-1.975,0" transform="translate(-185.024 -148.674)" fill="none" stroke="#2f2f35" stroke-linecap="round" stroke-miterlimit="10" stroke-width="0.821"/>
      <g id="Group_52" data-name="Group 52" transform="translate(81.306 112.132)">
        <path id="Path_169" data-name="Path 169" d="M319.092,327.122l.036.1a12.187,12.187,0,0,1-5.8,14.934L276.46,361.481l-.182-.471a18.128,18.128,0,0,1,7.979-22.323l16.6-9.392Z" transform="translate(-275.053 -327.122)" fill="#fbcaef"/>
      </g>
      <g id="Group_53" data-name="Group 53" transform="translate(14.299 112.132)">
        <path id="Path_171" data-name="Path 171" d="M160.532,327.122l-.037.1a12.188,12.188,0,0,0,5.8,14.934l36.864,19.324.182-.471a18.129,18.129,0,0,0-7.98-22.323l-16.6-9.392Z" transform="translate(-159.769 -327.122)" fill="#fbcaef"/>
      </g>
      <path id="Path_173" data-name="Path 173" d="M224.365,372.831s1.861-10.208-4.2-13.484" transform="translate(-170.762 -228.485)" fill="none" stroke="#4c2a29" stroke-linecap="round" stroke-miterlimit="10" stroke-width="1.336"/>
      <path id="Path_174" data-name="Path 174" d="M284.132,372.831s-1.861-10.208,4.2-13.484" transform="translate(-197.436 -228.485)" fill="none" stroke="#4c2a29" stroke-linecap="round" stroke-miterlimit="10" stroke-width="1.336"/>
      <path id="Path_175" data-name="Path 175" d="M180.091,417.216s-12.676,12.129-23.483,7.138a3.15,3.15,0,0,1-1.187-4.721c9.1-12.364,20.58-25.833,24.956-30.895a4.285,4.285,0,0,1,4.437-1.312l12.45,3.617Z" transform="translate(-143.391 -240.172)" fill="#9ac1bd"/>
      <path id="Path_176" data-name="Path 176" d="M215.481,391.165l11.924-3.618-9.032,27.795-20.064,2Z" transform="translate(-161.609 -240.294)" fill="#f7f8f6"/>
      <path id="Path_177" data-name="Path 177" d="M219.322,398.723c3.537-.377,8.131-.93,13.814-1.732l3.069-9.444-11.924,3.618Z" transform="translate(-170.409 -240.294)" fill="#dadada" opacity="0.28" style="mix-blend-mode: multiply;isolation: isolate"/>
      <g id="Group_55" data-name="Group 55" transform="translate(26.866 107.671)">
        <g id="Group_54" data-name="Group 54">
          <path id="Path_179" data-name="Path 179" d="M223.724,319.447H181.391l10.437,37.177h63.791l10.437-37.177Z" transform="translate(-181.391 -319.447)" fill="#c7c7c7"/>
          <rect id="Rectangle_16" data-name="Rectangle 16" width="63.791" height="5.415" transform="translate(10.437 37.177)" fill="#c7c7c7"/>
          <path id="Path_181" data-name="Path 181" d="M191.828,352.381h22.72c13.49-14.668,21.687-34.864,21.687-34.864l-.028-2.313H181.391Z" transform="translate(-181.391 -315.204)" fill="#c7c7c7" opacity="0.54" style="mix-blend-mode: overlay;isolation: isolate"/>
        </g>
        <line id="Line_4" data-name="Line 4" x2="84.666" transform="translate(0 0)" fill="none" stroke="#d8d8d8" stroke-miterlimit="10" stroke-width="1" opacity="0.57"/>
      </g>
      <path id="Path_235" data-name="Path 235" d="M235.254,136.079c-6.9,1.678-9.071-1.876-9.071-1.876s-.065,9.834,4.684,12.758c.485.416-.927-4.791-.927-4.791l2.263.666s-4.348-3.084-3.2-4.194c.563-.542,3.669-.572,4.86-1.065C238.195,135.646,238.837,135.207,235.254,136.079Z" transform="translate(-173.282 -134.203)" fill="#e2b486"/>
    </g>
  </g>
</svg>
