<svg xmlns="http://www.w3.org/2000/svg" width="28" height="39" viewBox="0 0 28 39"><g transform="translate(2446 4113.5)"><path d="M14,20a17.12,17.12,0,0,1-9.9-2.929C1.456,15.182,0,12.671,0,10S1.456,4.818,4.1,2.929A17.119,17.119,0,0,1,14,0a17.117,17.117,0,0,1,9.9,2.929C26.544,4.818,28,7.329,28,10s-1.456,5.183-4.1,7.071A17.118,17.118,0,0,1,14,20ZM14,4a6,6,0,1,0,6,6A6.007,6.007,0,0,0,14,4Z" transform="translate(-2446 -4104)" fill="#fccd6b"/><line y1="3" transform="translate(-2432.5 -4111.5)" fill="none" stroke="#fccd6b" stroke-linecap="round" stroke-width="4"/><line y1="3" x2="1" transform="translate(-2425.5 -4110.5)" fill="none" stroke="#fccd6b" stroke-linecap="round" stroke-width="4"/><line x1="1" y1="3" transform="translate(-2440.5 -4110.5)" fill="none" stroke="#fccd6b" stroke-linecap="round" stroke-width="4"/><line y1="3" transform="translate(-2432.5 -4076.5) rotate(180)" fill="none" stroke="#fccd6b" stroke-linecap="round" stroke-width="4"/><line y1="3" x2="1" transform="translate(-2439.5 -4077.5) rotate(180)" fill="none" stroke="#fccd6b" stroke-linecap="round" stroke-width="4"/><line x1="1" y1="3" transform="translate(-2424.5 -4077.5) rotate(180)" fill="none" stroke="#fccd6b" stroke-linecap="round" stroke-width="4"/></g></svg>