<svg xmlns="http://www.w3.org/2000/svg" width="63.928" height="63.927" viewBox="0 0 63.928 63.927">
  <path id="Facebook" d="M31.842,63.927h0Zm.225,0h0Zm-.323,0h0Zm.426,0h0Zm-.521,0h0Zm.624,0h0Zm.1,0h0Zm-.846,0h0Zm.949,0h0Zm-1.049,0h0Zm1.152,0h0Zm-1.247,0h0Zm-.117,0h0Zm1.466,0h0Zm-1.569,0h0Zm1.672,0h0Zm.1,0h0Zm-1.869,0h0Zm-.09,0h0Zm2.061,0h0Zm.1,0h0Zm-2.294,0h0Zm-.094,0,.045,0h-.045Zm2.49,0h-.025l.045,0Zm-2.582,0,.044,0h-.044Zm2.684,0h-.035l.044,0H33.3Zm-2.812-.006.047,0h-.012Zm2.915,0h-.012l.047,0-.036,0ZM30.4,63.889l.049,0H30.4Zm3.109,0h-.023l.049,0Zm-3.2-.006.05,0-.035,0Zm3.3,0-.035,0,.05,0Zm.1-.005-.045,0,.04,0,.047,0-.042,0Zm-3.487,0,.04,0-.045,0-.042,0Zm3.589-.006h-.02l.051,0Zm-3.726,0,.051,0h-.02ZM30,63.867l.051,0-.032,0Zm3.918,0-.032,0,.051,0Zm-4-.007.046,0-.042,0-.043,0,.04,0Zm4.106,0-.042,0,.046,0,.04,0-.043,0Zm.1-.007H34.1l.048,0-.033,0Zm-4.339,0,.048,0h-.015Zm-.09-.006.047,0-.026,0-.021,0Zm4.531,0-.026,0,.047,0ZM29.6,63.84l.044,0-.034,0H29.6Zm4.722,0-.034,0,.044,0h-.01Zm-4.843-.01.038,0h-.009Zm4.945,0h-.009l.038,0Zm.1-.008H34.5l.039,0Zm-5.139,0,.039,0H29.4l-.021,0Zm-.091-.007.033,0-.023,0Zm5.331,0-.023,0,.033,0Zm-5.43-.009h0Zm5.531,0h0Zm.1-.009h-.009l.023,0h-.014Zm-5.739,0,.023,0h-.023Zm-.094-.008.017,0h-.017Zm5.934,0h-.01l.017,0Zm-7.958-.253a31.964,31.964,0,1,1,9.989,0V41.2h7.448l1.417-9.239H36.958v-6c0-2.528,1.238-4.992,5.209-4.992H46.2V13.11a49.153,49.153,0,0,0-7.155-.624c-7.3,0-12.073,4.425-12.073,12.436v7.042H18.854V41.2h8.116Z" fill="#fccd6b" fill-rule="evenodd"/>
</svg>
