<svg xmlns="http://www.w3.org/2000/svg" xmlns:xlink="http://www.w3.org/1999/xlink" width="219" height="116" viewBox="0 0 219 116">
  <defs>
    <clipPath id="clip-path">
      <rect id="Rectangle_40" data-name="Rectangle 40" width="219" height="116" transform="translate(2604 2256)" fill="#f7f8f6" stroke="#707070" stroke-width="1"/>
    </clipPath>
    <clipPath id="clip-path-2">
      <rect id="Rectangle_13" data-name="Rectangle 13" width="79" height="23" transform="translate(-14.215 -0.328)" fill="#fccd6b"/>
    </clipPath>
  </defs>
  <g id="Mask_Group_1" data-name="Mask Group 1" transform="translate(-2604 -2256)" clip-path="url(#clip-path)">
    <path id="Path_236" data-name="Path 236" d="M93.725,140.687c-1.382-.006-2.766-.061-4.151-.175-15.181-1.244-32.767-8.493-40.326-21.691-6.608-11.538-9.2-26.476-6.194-39.345A34.745,34.745,0,0,1,66.93,53.86c13.809-4.184,29.072.9,42.66-4.815,19.778-8.317,44.636-1.712,58.5,14.113,12.289,14.03,15.264,36.654,11.406,54.183-1.95,8.859-7.078,17.391-15.242,21.851-6.5,3.549-14.347,4.249-21.775,3.324-5.972-.744-11.47-2.691-17.216-4.295-4.605-1.285-8.384-.616-13.1.317A93.329,93.329,0,0,1,93.725,140.687Z" transform="translate(2598.823 2229.113)" fill="#b0b1ea" opacity="0.41"/>
    <g id="Group_81" data-name="Group 81" transform="translate(30 11.863)">
      <path id="Path_103" data-name="Path 103" d="M1.5,4.061,0,0H3.011Z" transform="matrix(0.574, 0.819, -0.819, 0.574, 2731.646, 2304.767)" fill="#b1b3e7"/>
      <rect id="Rectangle_1" data-name="Rectangle 1" width="1.568" height="2.628" transform="matrix(0.574, 0.819, -0.819, 0.574, 2756.837, 2288.008)" fill="#b1b3e7"/>
      <g id="Group_32" data-name="Group 32" transform="matrix(0.574, 0.819, -0.819, 0.574, 2754.24, 2287.58)">
        <path id="Path_105" data-name="Path 105" d="M.327,12.436A.328.328,0,0,1,0,12.108V2.221L2.125.1a.328.328,0,0,1,.464.463L.655,2.493v9.615A.328.328,0,0,1,.327,12.436Z" fill="#8386d8"/>
      </g>
      <path id="Path_106" data-name="Path 106" d="M3.011.752A.752.752,0,0,0,2.259,0H.752A.752.752,0,0,0,0,.752V3.38H3.011Z" transform="matrix(0.574, 0.819, -0.819, 0.574, 2755.048, 2288.381)" fill="#8386d8"/>
      <rect id="Rectangle_2" data-name="Rectangle 2" width="3.011" height="25.188" transform="matrix(0.574, 0.819, -0.819, 0.574, 2752.279, 2290.32)" fill="#b1b3e7"/>
    </g>
    <g id="Group_2" data-name="Group 2" transform="translate(2632.91 2314.54) rotate(-20)">
      <path id="Path_3" data-name="Path 3" d="M184.274,146.509a1.6,1.6,0,0,1,2.191.589l23.307,40.321-2.779,1.606L183.686,148.7A1.607,1.607,0,0,1,184.274,146.509Z" transform="translate(-183.47 -146.294)" fill="#b1b3e7"/>
      <g id="Group_1" data-name="Group 1" transform="translate(23.526 41.126)">
        <path id="Path_4" data-name="Path 4" d="M250.923,260.505l-.3-1.054-.459.265Z" transform="translate(-246.31 -254.126)" fill="#b1b3e7"/>
        <path id="Path_5" data-name="Path 5" d="M240.78,248.084l3.851,3.984.459-.265-1.531-5.326Z" transform="translate(-240.78 -246.478)" fill="#b1b3e7"/>
      </g>
    </g>
    <path id="Path_237" data-name="Path 237" d="M107.375,144.056c-.015-.017-1.744-2.053-4.776-4.935-1.94.606-11.188,3.243-11.033-1.606.127-3.987,5.744-1.911,8.7-.537-1.4-1.247-2.988-2.58-4.73-3.931-2.259.732-10.7,3.2-10.478-.826.227-4.166,6.128-1.859,8.033-1-1.53-1.1-3.159-2.2-4.872-3.244-1.781.737-8.578,3.3-9.009-.325-.383-3.227,3.99-2.1,6-1.418q-1.474-.8-3.016-1.543c-3.894.5-13.2-1.709-9.638-5.031,3.106-2.893,8.058,2.368,9.679,4.276,1.162.549,2.3,1.131,3.405,1.737-1.19-2.115-3.615-7.1.3-6.6,4.361.556,3.143,6.885,2.787,8.4,1.392.857,2.729,1.743,4,2.638-1.72-2.678-4.771-8.33-.207-8.764,5.5-.523,3.91,9.606,3.609,11.285,2.043,1.592,3.868,3.156,5.435,4.582-1.649-2.346-6.7-10.094-1.215-9.687,5.731.425,3.341,9.136,2.73,11.1,3.062,2.911,4.809,4.967,4.824,4.984Z" transform="matrix(0.875, 0.485, -0.485, 0.875, 2664.904, 2170.12)" fill="#f68ddc" fill-rule="evenodd"/>
    <g id="Web_1920_1" data-name="Web 1920 – 1" transform="translate(2688.215 2263.328)" clip-path="url(#clip-path-2)">
      <rect id="Rectangle_1-2" data-name="Rectangle 1" width="23" height="23" transform="translate(-14.215 -0.328)" fill="#fccd6b"/>
      <ellipse id="Ellipse_1" data-name="Ellipse 1" cx="11" cy="11.5" rx="11" ry="11.5" transform="translate(13.785 -0.328)" fill="#fccd6b"/>
      <path id="Polygon_1" data-name="Polygon 1" d="M13.178,0,26.356,22.672H0Z" transform="translate(64.785 22.672) rotate(180)" fill="#fccd6b"/>
    </g>
    <g id="Group_79" data-name="Group 79" transform="translate(1380 -108.505)">
      <path id="Path_128" data-name="Path 128" d="M254.158,155.235s3.538-11.1-1.632-14.318c-3.286-1.688-3.746.32-3.746.32s-2.879-7.75-13.526-5.159c-6.9,1.678-9.071-1.876-9.071-1.876s-.065,9.834,4.684,12.758c3.439,2.949,2.12,10.919,2.12,10.919Z" transform="translate(1087.351 2279.792)" fill="#937b63"/>
      <path id="Path_129" data-name="Path 129" d="M258.767,419.842s19.167.575,24.517,5.514c5.625,5.193,11.528,13.3-12.69,13.146s-45.687-6.822-66-4.706-36.98,5.762-41.836,4.954,29.754-17.389,29.754-17.389l64.256,2.358Z" transform="translate(1114.106 2160.177)" fill="#c7c7c7" opacity="0.87" style="mix-blend-mode: multiply;isolation: isolate"/>
      <path id="Path_130" data-name="Path 130" d="M258.217,343.918l-24.163-2.428-24.163,2.428s-1.436,11.417-6.1,17.507l30.264,10.869,30.264-10.869C259.652,355.334,258.217,343.918,258.217,343.918Z" transform="translate(1096.728 2192.987)" fill="#a87d1d"/>
      <path id="Path_131" data-name="Path 131" d="M250.393,371.951l.954.343.953-.342c5.568-12.81,4.236-27.182,3.905-29.974l-4.859-.488-6.219.625C245.005,345.184,244.8,359.224,250.393,371.951Z" transform="translate(1079.434 2192.987)" fill="#a87d1d" style="mix-blend-mode: multiply;isolation: isolate"/>
      <path id="Path_132" data-name="Path 132" d="M214.049,344.849s25.426,11.214,49.982,6.341a57.189,57.189,0,0,1-1.518-7.272L238.35,341.49l-19.41,1.95-4.891,1.409Z" transform="translate(1092.432 2192.987)" fill="#895436" style="mix-blend-mode: multiply;isolation: isolate"/>
      <path id="Path_134" data-name="Path 134" d="M237.572,204.055,217.6,211.337l-3.31,75.028s7.061,3.31,24.163,3.31V205.22Z" transform="translate(1092.333 2250.54)" fill="#fff"/>
      <path id="Path_135" data-name="Path 135" d="M256.736,204.055l19.975,7.282,3.31,75.028s-7.061,3.31-24.163,3.31V205.22Z" transform="translate(1074.924 2250.54)" fill="#fff"/>
      <path id="Path_136" data-name="Path 136" d="M195.238,216.584l-.092.033a21.648,21.648,0,0,0-12.807,12.318l-21.442,51.9,18.233,2.173,15.435-37.83Z" transform="translate(1114.69 2245.293)" fill="#fbcaef"/>
      <path id="Path_138" data-name="Path 138" d="M313.069,249.087,304.7,228.935a21.708,21.708,0,0,0-12.872-12.318l-.093-.033.678,28.592,4.394,10.717A28.381,28.381,0,0,1,313.069,249.087Z" transform="translate(1059.792 2245.293)" fill="#f7f8f6"/>
      <path id="Path_139" data-name="Path 139" d="M183.462,249.087l8.326-20.152A21.648,21.648,0,0,1,204.6,216.617l.092-.033-.674,28.592-4.373,10.717A28.157,28.157,0,0,0,183.462,249.087Z" transform="translate(1105.24 2245.293)" fill="#fff"/>
      <path id="Path_140" data-name="Path 140" d="M273.412,265.906a22.13,22.13,0,0,1-1.3-2.178l.673,1.19s-7.6,42.183-27.917,49.579h0c1.954.1,4.077.167,6.391.167,17.1,0,24.163-3.31,24.163-3.31Z" transform="translate(1079.528 2225.551)" fill="#f7f8f6"/>
      <path id="Path_143" data-name="Path 143" d="M252.021,206.931h-.108a5.347,5.347,0,0,1-5.347-5.346V188.819h10.8v12.766A5.347,5.347,0,0,1,252.021,206.931Z" transform="translate(1078.815 2256.92)" fill="#fbcaef"/>
      <path id="Path_144" data-name="Path 144" d="M257.281,198.665c.031,0,.056,0,.087,0v-9.842h-5.042l-5.759,2.081A11.062,11.062,0,0,0,257.281,198.665Z" transform="translate(1078.815 2256.92)" fill="#f9b3e8"/>
      <path id="Path_145" data-name="Path 145" d="M272.477,173.125a3.468,3.468,0,1,1-3.469-3.468A3.469,3.469,0,0,1,272.477,173.125Z" transform="translate(1070.869 2264.945)" fill="#f9b3e8"/>
      <path id="Path_147" data-name="Path 147" d="M234.242,173.125a3.468,3.468,0,1,0,3.468-3.468A3.469,3.469,0,0,0,234.242,173.125Z" transform="translate(1083.976 2264.945)" fill="#fbcaef"/>
      <path id="Path_149" data-name="Path 149" d="M255.388,154.754H243.179l-3.021,6.6.508,6.533c.271,3.487,2.524,9.506,5.693,10.985a6.206,6.206,0,0,0,5.85,0c3.168-1.479,5.421-7.5,5.693-10.985l.508-6.533Z" transform="translate(1081.498 2271.185)" fill="#fbcaef"/>
      <path id="Path_151" data-name="Path 151" d="M260.107,162.466s2.991-.5,4.789.539" transform="translate(1073.145 2268.006)" fill="#937b63" stroke="#937b63" stroke-linecap="round" stroke-miterlimit="10" stroke-width="2.672"/>
      <path id="Path_153" data-name="Path 153" d="M248.158,162.466s-2.992-.5-4.789.539" transform="translate(1080.154 2268.006)" fill="#937b63" stroke="#937b63" stroke-linecap="round" stroke-miterlimit="10" stroke-width="2.672"/>
      <g id="Group_51" data-name="Group 51" transform="translate(1260.728 2544.577)">
        <path id="Path_155" data-name="Path 155" d="M226.24,380.543,157.207,359.6a16.878,16.878,0,0,0-21.229,11.882l-.091.349A16.875,16.875,0,0,0,149.3,392.722c25.524,4.462,71.786,12.049,96.134,12.977l10.263,6.842a4.007,4.007,0,0,0,4.966-.411l.053-.049a4.009,4.009,0,0,0,.184-5.665l-1.6-1.709a14.882,14.882,0,0,0-8.474-9.93c-7.047-2.979-7.708-10.261-9.364-14.233S229.219,374.585,226.24,380.543Z" transform="translate(-135.333 -358.866)" fill="#b0b1ea"/>
        <path id="Path_156" data-name="Path 156" d="M135.978,371.48A16.878,16.878,0,0,1,157.207,359.6l23.411,7.1c-3.526,4.4-8.178,13.33-8.318,29.9-8.547-1.39-16.455-2.739-23-3.882a16.876,16.876,0,0,1-13.417-20.893Z" transform="translate(-135.333 -358.866)" fill="#b0b1ea"/>
        <path id="Path_157" data-name="Path 157" d="M157.755,393.127a17.262,17.262,0,0,1-1.866,7.822c-2.312-.4-4.523-.779-6.586-1.14a16.876,16.876,0,0,1-13.417-20.893l.091-.349a17.039,17.039,0,0,1,.824-2.4,17.342,17.342,0,0,1,20.953,16.959Z" transform="translate(-135.333 -365.952)" fill="#8386d8" opacity="0.67" style="mix-blend-mode: multiply;isolation: isolate"/>
        <path id="Path_158" data-name="Path 158" d="M289.8,412.675s-.993,5.785-10.592,3.72" transform="translate(-195.582 -381.399)" fill="#b0b1ea" stroke="#7b3c38" stroke-miterlimit="10" stroke-width="1.139"/>
        <path id="Path_159" data-name="Path 159" d="M250.057,387.7s-14.707-.662-45.822-6.212c-25.207-4.5-32.6-17.4-34.5-22.136a16.978,16.978,0,0,1,1.88.452l69.032,20.945c2.979-5.958,13.571-3.972,15.226,0s2.317,11.254,9.364,14.233a14.882,14.882,0,0,1,8.474,9.93s-7.246-4.634-11.826-5.628S250.057,387.7,250.057,387.7Z" transform="translate(-149.738 -359.067)" fill="#8386d8" opacity="0.28" style="mix-blend-mode: multiply;isolation: isolate"/>
      </g>
      <path id="Path_160" data-name="Path 160" d="M301.035,417.216s12.676,12.129,23.483,7.138a3.149,3.149,0,0,0,1.187-4.721c-9.1-12.364-20.58-25.833-24.955-30.895a4.286,4.286,0,0,0-4.437-1.312l-12.45,3.617Z" transform="translate(1063.196 2173.822)" fill="#9ac1bd"/>
      <path id="Path_161" data-name="Path 161" d="M275.272,391.165l-11.924-3.618,9.032,27.795,20.064,2Z" transform="translate(1071.787 2173.7)" fill="#e2e2e2"/>
      <path id="Path_162" data-name="Path 162" d="M194.225,380.543,263.258,359.6a16.877,16.877,0,0,1,21.229,11.882l.092.349a16.875,16.875,0,0,1-13.417,20.893c-25.523,4.462-71.786,12.049-96.134,12.977l-10.263,6.842a4.007,4.007,0,0,1-4.966-.411l-.053-.049a4.009,4.009,0,0,1-.184-5.665l1.6-1.709a14.882,14.882,0,0,1,8.474-9.93c7.047-2.979,7.709-10.261,9.364-14.233S191.246,374.585,194.225,380.543Z" transform="translate(1115.703 2185.711)" fill="#fbcaef"/>
      <path id="Path_163" data-name="Path 163" d="M343.111,371.48A16.877,16.877,0,0,0,321.882,359.6l-23.41,7.1c3.527,4.4,8.177,13.33,8.318,29.9,8.547-1.39,16.455-2.739,23-3.882A16.875,16.875,0,0,0,343.2,371.829Z" transform="translate(1057.079 2185.711)" fill="#b0b1ea"/>
      <path id="Path_164" data-name="Path 164" d="M337.806,393.127a17.262,17.262,0,0,0,1.866,7.822c2.312-.4,4.523-.779,6.585-1.14a16.875,16.875,0,0,0,13.417-20.893l-.092-.349a16.963,16.963,0,0,0-.824-2.4,17.342,17.342,0,0,0-20.953,16.959Z" transform="translate(1040.607 2178.625)" fill="#8386d8" opacity="0.67" style="mix-blend-mode: multiply;isolation: isolate"/>
      <path id="Path_165" data-name="Path 165" d="M186.748,387.7s14.707-.662,45.822-6.212c25.208-4.5,32.6-17.4,34.5-22.136a17.033,17.033,0,0,0-1.879.452l-69.033,20.945c-2.979-5.958-13.571-3.972-15.226,0s-2.317,11.254-9.364,14.233a14.882,14.882,0,0,0-8.474,9.93s7.246-4.634,11.826-5.628S186.748,387.7,186.748,387.7Z" transform="translate(1113.77 2185.51)" fill="#f9b3e8" opacity="0.28" style="mix-blend-mode: multiply;isolation: isolate"/>
      <path id="Path_166" data-name="Path 166" d="M159.874,394.6l-10.348-1.919a17.04,17.04,0,0,1-14.111-19.7l.063-.366a17.04,17.04,0,0,1,21.946-13.373l19.539,6.193" transform="translate(1125.464 2185.891)" fill="none" stroke="#fff" stroke-miterlimit="10" stroke-width="1.114" opacity="0.57"/>
      <path id="Path_167" data-name="Path 167" d="M249.423,178.62a.452.452,0,0,0-.362.724,4.649,4.649,0,0,0,7.832,0,.452.452,0,0,0-.362-.724Z" transform="translate(1077.809 2261.191)" fill="#fff"/>
      <path id="Path_168" data-name="Path 168" d="M256.2,168.76v3.591a2.38,2.38,0,0,0-1.975,0" transform="translate(1075.608 2265.32)" fill="none" stroke="#2f2f35" stroke-linecap="round" stroke-miterlimit="10" stroke-width="0.821"/>
      <g id="Group_52" data-name="Group 52" transform="translate(1341.938 2526.126)">
        <path id="Path_169" data-name="Path 169" d="M319.092,327.122l.036.1a12.187,12.187,0,0,1-5.8,14.934s-25.7,10.726-35.428,13.992-13.607-.647-13.607-.647c-3.248-8.39,12.137-12.385,19.968-16.815l16.6-9.392Z" transform="matrix(-0.914, 0.407, -0.407, -0.914, 445.944, 143.029)" fill="#fbcaef"/>
      </g>
      <g id="Group_53" data-name="Group 53" transform="translate(1274.931 2526.126)">
        <path id="Path_171" data-name="Path 171" d="M160.532,327.122l-.037.1a12.188,12.188,0,0,0,5.8,14.934l36.864,19.324.182-.471a18.129,18.129,0,0,0-7.98-22.323l-16.6-9.392Z" transform="translate(-159.769 -327.122)" fill="#fbcaef"/>
      </g>
      <path id="Path_173" data-name="Path 173" d="M224.365,372.831s1.861-10.208-4.2-13.484" transform="translate(1089.87 2185.51)" fill="none" stroke="#4c2a29" stroke-linecap="round" stroke-miterlimit="10" stroke-width="1.336"/>
      <path id="Path_174" data-name="Path 174" d="M284.132,372.831s-1.861-10.208,4.2-13.484" transform="translate(1063.197 2185.51)" fill="none" stroke="#4c2a29" stroke-linecap="round" stroke-miterlimit="10" stroke-width="1.336"/>
      <path id="Path_175" data-name="Path 175" d="M180.091,417.216s-12.676,12.129-23.483,7.138a3.15,3.15,0,0,1-1.187-4.721c9.1-12.364,20.58-25.833,24.956-30.895a4.285,4.285,0,0,1,4.437-1.312l12.45,3.617Z" transform="translate(1117.241 2173.822)" fill="#9ac1bd"/>
      <path id="Path_176" data-name="Path 176" d="M215.481,391.165l11.924-3.618-9.032,27.795-20.064,2Z" transform="translate(1099.023 2173.7)" fill="#f7f8f6"/>
      <path id="Path_177" data-name="Path 177" d="M219.322,398.723c3.537-.377,8.131-.93,13.814-1.732l3.069-9.444-11.924,3.618Z" transform="translate(1090.224 2173.7)" fill="#dadada" opacity="0.28" style="mix-blend-mode: multiply;isolation: isolate"/>
      <g id="Group_55" data-name="Group 55" transform="translate(1287.499 2521.665)">
        <g id="Group_54" data-name="Group 54">
          <path id="Path_179" data-name="Path 179" d="M223.724,319.447H181.391l10.437,37.177h63.791l10.437-37.177Z" transform="translate(-181.391 -319.447)" fill="#c7c7c7"/>
          <rect id="Rectangle_16" data-name="Rectangle 16" width="63.791" height="5.415" transform="translate(10.437 37.177)" fill="#c7c7c7"/>
          <path id="Path_181" data-name="Path 181" d="M191.828,352.381h22.72c13.49-14.668,21.687-34.864,21.687-34.864l-.028-2.313H181.391Z" transform="translate(-181.391 -315.204)" fill="#c7c7c7" opacity="0.54" style="mix-blend-mode: overlay;isolation: isolate"/>
        </g>
        <line id="Line_4" data-name="Line 4" x2="84.666" transform="translate(0 0)" fill="none" stroke="#d8d8d8" stroke-miterlimit="10" stroke-width="1" opacity="0.57"/>
      </g>
      <path id="Path_235" data-name="Path 235" d="M235.254,136.079c-6.9,1.678-9.071-1.876-9.071-1.876s-.065,9.834,4.684,12.758c.485.416-.927-4.791-.927-4.791l2.263.666s-4.348-3.084-3.2-4.194c.563-.542,3.669-.572,4.86-1.065C238.195,135.646,238.837,135.207,235.254,136.079Z" transform="translate(1087.351 2279.792)" fill="#e2b486"/>
      <g id="Ellipse_1-2" data-name="Ellipse 1" transform="translate(1325 2434.505)" fill="#2b33f5" stroke="#7bb8e8" stroke-width="1">
        <circle cx="1" cy="1" r="1" stroke="none"/>
        <circle cx="1" cy="1" r="0.5" fill="none"/>
      </g>
      <g id="Ellipse_2" data-name="Ellipse 2" transform="translate(1335 2434.505)" fill="#2b33f5" stroke="#7bb8e8" stroke-width="1">
        <circle cx="1" cy="1" r="1" stroke="none"/>
        <circle cx="1" cy="1" r="0.5" fill="none"/>
      </g>
    </g>
    <g id="Group_43" data-name="Group 43" transform="translate(2724.758 2343.288) rotate(-65)">
      <g id="Group_42" data-name="Group 42" transform="translate(0 0)">
        <path id="Path_113" data-name="Path 113" d="M23.007,0,36.25,8.8,13.673,42.785a2.578,2.578,0,0,1-3.574.721L1.152,37.563a2.579,2.579,0,0,1-.721-3.575Z" transform="translate(0)" fill="#f7f8f6"/>
        <g id="Group_41" data-name="Group 41" transform="translate(4.16 1.671)">
          <rect id="Rectangle_12" data-name="Rectangle 12" width="13.406" height="7.738" transform="matrix(-0.833, -0.553, 0.553, -0.833, 11.167, 36.373)" fill="#b0b1ea"/>
          <path id="Path_114" data-name="Path 114" d="M0,0H13.407V7.738H0Z" transform="matrix(-0.833, -0.553, 0.553, -0.833, 16.151, 28.87)" fill="#9295dd"/>
          <path id="Path_115" data-name="Path 115" d="M0,0H13.406V7.738H0Z" transform="translate(21.135 21.367) rotate(-146.405)" fill="#6f73d2"/>
          <path id="Path_116" data-name="Path 116" d="M0,0H13.407V7.738H0Z" transform="translate(26.119 13.864) rotate(-146.406)" fill="#4549c4"/>
        </g>
      </g>
    </g>
    <circle id="Ellipse_3" data-name="Ellipse 3" cx="3" cy="3" r="3" transform="translate(2754 2275)" fill="#6f73d2"/>
    <circle id="Ellipse_4" data-name="Ellipse 4" cx="4" cy="4" r="4" transform="translate(2731 2336)" fill="#f68ddc"/>
    <circle id="Ellipse_5" data-name="Ellipse 5" cx="3" cy="3" r="3" transform="translate(2660 2282)" fill="#f68ddc"/>
    <circle id="Ellipse_6" data-name="Ellipse 6" cx="6.5" cy="6.5" r="6.5" transform="translate(2641 2342)" fill="#4549c4"/>
    <text id="_Hello_world_" data-name="&lt;Hello world&gt;" transform="translate(2637 2304)" fill="#6f73d2" font-size="20" font-family="Comfortaa-Medium, Comfortaa" font-weight="500"><tspan x="0" y="0">&lt;Hello world&gt;</tspan></text>
  </g>
</svg>
