<svg xmlns="http://www.w3.org/2000/svg" xmlns:xlink="http://www.w3.org/1999/xlink" width="492.355" height="349.106" viewBox="0 0 492.355 349.106">
  <defs>
    <linearGradient id="linear-gradient" x1="0.5" x2="0.5" y2="1" gradientUnits="objectBoundingBox">
      <stop offset="0" stop-color="#b1b3e7"/>
      <stop offset="1" stop-color="#afafef"/>
    </linearGradient>
  </defs>
  <g id="Group_46" data-name="Group 46" transform="translate(-1599.012 -1807.917)">
    <path id="Path_119" data-name="Path 119" d="M159.526,181.025c-.036-.041-4.3-5.059-11.769-12.161-4.78,1.493-27.569,7.992-27.186-3.957.313-9.824,14.154-4.709,21.44-1.324-3.458-3.073-7.363-6.357-11.656-9.686-5.567,1.8-26.36,7.888-25.819-2.035.559-10.265,15.1-4.581,19.794-2.47-3.771-2.716-7.784-5.411-12-7.994-4.388,1.817-21.138,8.133-22.2-.8-.943-7.952,9.831-5.17,14.775-3.495q-3.633-1.983-7.431-3.8c-9.594,1.221-32.537-4.212-23.748-12.4,7.654-7.129,19.855,5.835,23.849,10.537,2.864,1.353,5.663,2.787,8.391,4.28-2.932-5.211-8.907-17.5.746-16.27,10.745,1.369,7.745,16.965,6.867,20.7,3.431,2.111,6.725,4.294,9.863,6.5-4.238-6.6-11.756-20.527-.51-21.6,13.556-1.288,9.634,23.669,8.893,27.807,5.034,3.922,9.53,7.776,13.392,11.29-4.063-5.782-16.508-24.872-2.994-23.87,14.121,1.048,8.233,22.513,6.726,27.34,7.544,7.172,11.851,12.24,11.887,12.282Z" transform="translate(1542.098 1751.797)" fill="#f68ddc" fill-rule="evenodd"/>
    <g id="Group_44" data-name="Group 44">
      <g id="Group_29" data-name="Group 29" transform="matrix(0.966, -0.259, 0.259, 0.966, 1482.644, 1839.065)">
        <path id="Path_98" data-name="Path 98" d="M310.865,83.03c-.716,13.3,4.84,40.093,9.737,43.869,6.205,4.785,64.829,13.744,68.135,8.549,2.8-4.394,13.452-38.494,13.011-50.041-8.549,6.1-41.773,29.579-46.006,29.254C352.679,114.426,327.458,95.626,310.865,83.03Z" fill="#8386d8" fill-rule="evenodd"/>
        <path id="Path_99" data-name="Path 99" d="M399.661,81.579c-7.511-.918-81.261-9.806-86.748-5.625a3.948,3.948,0,0,0-1.166,1.805c16.116,12.315,42.484,32.219,44.786,32.4C359.249,110.363,391.981,87.074,399.661,81.579Z" fill="#8386d8" fill-rule="evenodd"/>
      </g>
      <path id="Path_1" data-name="Path 1" d="M211.509,384.294l-32.821,67.983s-2.91,6.07,5.448,5.886,277.094,7.869,282.708,8.055,6.868-3.425,3.412-10.711c-3.132-6.6-23.316-53.962-27.055-62.743a2.351,2.351,0,0,0-2.117-1.454l-227.33-8.368A2.351,2.351,0,0,0,211.509,384.294Z" transform="translate(1503.852 1690.797)" fill="#c0d8d6" fill-rule="evenodd"/>
      <path id="Path_2" data-name="Path 2" d="M106.874,287.334H43.4a9.257,9.257,0,0,0-9.255,9.257v40.043A9.254,9.254,0,0,0,43.4,345.89H82.891l11.988,11.99V345.89h12a9.255,9.255,0,0,0,9.256-9.256V296.591A9.257,9.257,0,0,0,106.874,287.334ZM54.029,321.215a4.6,4.6,0,1,1,4.6-4.6A4.6,4.6,0,0,1,54.029,321.215Zm21.11,0a4.6,4.6,0,1,1,4.6-4.6A4.6,4.6,0,0,1,75.139,321.215Zm21.112,0a4.6,4.6,0,1,1,4.6-4.6A4.6,4.6,0,0,1,96.251,321.215Z" transform="translate(1564.864 1731.206)" fill="url(#linear-gradient)"/>
      <g id="Group_3" data-name="Group 3" transform="translate(1503.852 1690.797)">
        <path id="Path_6" data-name="Path 6" d="M188.658,350.553l3.409-132.518s-1.047-8.715,10.7-8.308,210.99,6.117,210.99,6.117,8.062,1.511,8.513,7.758-3.2,135.434-3.2,135.434Z" fill="#fff" fill-rule="evenodd"/>
        <path id="Path_7" data-name="Path 7" d="M313.2,214.883a1.985,1.985,0,1,1-1.984,1.985A1.985,1.985,0,0,1,313.2,214.883Z" fill="#1b222d" fill-rule="evenodd"/>
        <path id="Path_8" data-name="Path 8" d="M197.247,334.088l2.8-108.758s-.911-7.584,9.314-7.229,197.134,7.026,197.134,7.026,7.015,1.315,7.408,6.751c.334,4.625-1.916,86.708-2.6,111.087a6.681,6.681,0,0,1-6.96,6.488l-200.705-8.519A6.687,6.687,0,0,1,197.247,334.088Z" fill="#444" fill-rule="evenodd"/>
        <path id="Path_9" data-name="Path 9" d="M323.3,336.81s25.5-.634-15.013-8.206l4.415,8.206S192.812,327.116,189,328.6l2.9-111.127s-.99-8.13,10.116-7.751c4.692.16,41.018,1.2,81.408,2.357C288.735,244.4,328.6,333.323,323.3,336.81Z" transform="translate(8.243 9.139)" fill="#363537" fill-rule="evenodd"/>
        <path id="Path_10" data-name="Path 10" d="M393.9,215.274l19.855.57s8.062,1.511,8.513,7.758c.313,4.336-1.351,67.929-2.4,106.408-2.861-5.111-7.575-8.677-14.552.005C396.075,341.52,394.214,261.6,393.9,215.274Z" fill="#1b222d" fill-rule="evenodd"/>
        <path id="Path_11" data-name="Path 11" d="M294.625,348.118s17.562-.766,18.04,1.223.159,3.926-.279,3.824-17.681.3-18-.664S294.107,348.118,294.625,348.118Z" fill="#eff0fa" fill-rule="evenodd"/>
      </g>
      <g id="Group_6" data-name="Group 6" transform="translate(1503.852 1690.797)">
        <path id="Path_12" data-name="Path 12" d="M458.192,200.606c.035-.041,4.409-4.962,12.035-11.9,4.746,1.6,27.385,8.6,27.269-3.351-.1-9.828-14.047-5.022-21.407-1.8,3.526-2.994,7.5-6.192,11.869-9.424,5.526,1.927,26.178,8.472,25.858-1.461-.331-10.274-14.994-4.914-19.734-2.908,3.832-2.632,7.9-5.238,12.178-7.726,4.348,1.914,20.953,8.6,22.212-.308,1.119-7.929-9.713-5.387-14.693-3.823q3.676-1.9,7.513-3.636c9.564,1.436,32.623-3.486,24.018-11.865-7.493-7.3-19.979,5.392-24.078,10-2.893,1.288-5.723,2.659-8.483,4.092,3.046-5.144,9.293-17.3-.384-16.283-10.774,1.13-8.121,16.788-7.326,20.541-3.477,2.034-6.819,4.144-10.005,6.281,4.383-6.5,12.21-20.261.99-21.579-13.525-1.588-10.159,23.45-9.509,27.6-5.12,3.81-9.7,7.563-13.641,10.99,4.191-5.691,17.058-24.5,3.525-23.8-14.142.734-8.732,22.325-7.332,27.184-7.7,7-12.12,11.974-12.157,12.015Z" fill="#f68ddc" fill-rule="evenodd"/>
      </g>
      <g id="Group_7" data-name="Group 7" transform="translate(1503.852 1690.797)">
        <path id="Path_20" data-name="Path 20" d="M215.29,270.263l55.384,6.017c-9.947,20.27-20.8,56.126,18.508,68.284l-58.639-2.488Z" fill="#a45066" fill-rule="evenodd"/>
        <path id="Path_21" data-name="Path 21" d="M298.266,288.721a39.738,39.738,0,0,0-9.04-1.705C293.43,275.417,299.24,283.043,298.266,288.721Z" fill="#1b222d" fill-rule="evenodd"/>
      </g>
      <path id="Path_22" data-name="Path 22" d="M177.646,250.717l32.676,2.445a1.249,1.249,0,0,1,.939.543,1.293,1.293,0,0,1,.226,1.061,24.5,24.5,0,0,0,.65,9.729l-34.795-1.95Z" transform="translate(1503.852 1690.797)" fill="#8386d8" fill-rule="evenodd"/>
      <path id="Path_23" data-name="Path 23" d="M181.04,259.26c18.221,1.327,36.675,1.6,72.577,5.316-1.23,78.858,34.866,79.959,55.671,80.842L211.2,341.254c-33.258-12.257-84.493-48.127-96.4-95.483l64.465,3.611a1.21,1.21,0,0,1,.9.517,1.282,1.282,0,0,1,.259,1.006A18.354,18.354,0,0,0,181.04,259.26Z" transform="translate(1503.852 1690.797)" fill="#1b222d" fill-rule="evenodd"/>
      <path id="Path_24" data-name="Path 24" d="M140.608,272.484c-4.142-.315-4.378-4.384-1.466-4.163l18.614,1.42c2.478.187,3.182,4.293,1.468,4.163Z" transform="translate(1503.852 1690.797)" fill="#fff" fill-rule="evenodd"/>
      <path id="Path_25" data-name="Path 25" d="M159.035,284.424a2.27,2.27,0,0,1-2.129-2.18,1.909,1.909,0,0,1,2.076-1.932l25.458,1.5a2.014,2.014,0,0,1,1.381.652,1.909,1.909,0,0,1,.548,1.395l-.011.386a1.728,1.728,0,0,1-1.879,1.678l-25.444-1.5Zm36.23-1.973,21.807,1.286a2.059,2.059,0,0,1,1.927,1.9l.021.388a1.663,1.663,0,0,1-.513,1.333,1.734,1.734,0,0,1-1.365.49l-21.864-1.288a2.009,2.009,0,0,1-1.422-.7,1.887,1.887,0,0,1-.5-1.466l.035-.385a1.727,1.727,0,0,1,1.874-1.561Zm30.485,1.8,13.8.812a2.272,2.272,0,0,1,2.13,2.181,1.909,1.909,0,0,1-2.077,1.931l-13.8-.813a2,2,0,0,1-1.366-.639,1.9,1.9,0,0,1-.563-1.371l0-.387A1.729,1.729,0,0,1,225.75,284.249Z" transform="translate(1503.852 1690.797)" fill="#8386d8" fill-rule="evenodd"/>
      <path id="Path_26" data-name="Path 26" d="M166.023,295.05a2.288,2.288,0,0,1-2.152-2.172,1.894,1.894,0,0,1,2.035-1.963l11.886.615a2,2,0,0,1,1.384.647,1.937,1.937,0,0,1,.562,1.4l-.006.389a1.715,1.715,0,0,1-1.847,1.7l-11.862-.615ZM190,292.163l22.634,1.171a2.291,2.291,0,0,1,2.153,2.172,1.9,1.9,0,0,1-2.035,1.964L190.121,296.3a2.074,2.074,0,0,1-1.943-1.9l-.025-.393a1.667,1.667,0,0,1,.495-1.337A1.7,1.7,0,0,1,190,292.163Z" transform="translate(1503.852 1690.797)" fill="#8386d8" fill-rule="evenodd"/>
      <path id="Path_27" data-name="Path 27" d="M176.921,305.269a2.82,2.82,0,0,1-2.531-2.146,1.583,1.583,0,0,1,1.785-1.9l18.637,1.05a2.821,2.821,0,0,1,2.531,2.148,1.583,1.583,0,0,1-1.785,1.9Z" transform="translate(1503.852 1690.797)" fill="#b0b1ea" fill-rule="evenodd"/>
      <path id="Path_28" data-name="Path 28" d="M173.4,313.437c-4.321-.337-4.194-4.45-1.7-4.256l15.049,1.208c2.185.172,3.681,4.411,1.7,4.257Z" transform="translate(1503.852 1690.797)" fill="#fff" fill-rule="evenodd"/>
      <path id="Path_29" data-name="Path 29" d="M201.728,320.863a2.369,2.369,0,0,1-2.242-2.142,1.837,1.837,0,0,1,1.963-1.983l5.666.227a2.148,2.148,0,0,1,2.012,1.815l.053.392a1.634,1.634,0,0,1-.417,1.382,1.671,1.671,0,0,1-1.353.537l-5.682-.228Zm13.065-3.59,27.963,1.122A2.369,2.369,0,0,1,245,320.537a1.838,1.838,0,0,1-1.963,1.984L215.08,321.4a2.149,2.149,0,0,1-2.018-1.857l-.043-.392a1.625,1.625,0,0,1,.435-1.355A1.675,1.675,0,0,1,214.793,317.273Z" transform="translate(1503.852 1690.797)" fill="#b0b1ea" fill-rule="evenodd"/>
      <path id="Path_30" data-name="Path 30" d="M204.182,329.483a2.5,2.5,0,0,1-2.307-2.168,1.747,1.747,0,0,1,1.869-1.988l14.674.673a2.5,2.5,0,0,1,2.307,2.169,1.747,1.747,0,0,1-1.87,1.988Z" transform="translate(1503.852 1690.797)" fill="#8386d8" fill-rule="evenodd"/>
      <path id="Path_31" data-name="Path 31" d="M172.7,252.087a3.4,3.4,0,0,1,3.617,2.535,2.574,2.574,0,0,1-2.237,3.238,3.4,3.4,0,0,1-3.617-2.534A2.575,2.575,0,0,1,172.7,252.087Z" transform="translate(1503.852 1690.797)" fill="#fbc6ee" fill-rule="evenodd"/>
      <path id="Path_32" data-name="Path 32" d="M244.074,303.131l-2.315,3.235a1.177,1.177,0,0,0,.929,1.861l5.235.125a1.176,1.176,0,0,0,.916-1.948l-2.92-3.36a1.178,1.178,0,0,0-1.845.087Z" transform="translate(1503.852 1690.797)" fill="#e07077" fill-rule="evenodd"/>
      <g id="Group_17" data-name="Group 17" transform="translate(1503.852 1690.797)">
        <g id="Group_9" data-name="Group 9">
          <path id="Path_33" data-name="Path 33" d="M303.236,338.57s36.7-54.447,41.69-169.508c0,0,201.777,44.632,242.589,62.618-62.525,60.369-162.422,39.527-176.209,111.285a6.681,6.681,0,0,1-6.96,6.488L299.43,345Z" fill="#b0b1ea" fill-rule="evenodd"/>
          <path id="Path_34" data-name="Path 34" d="M303.236,338.57s9.368-16.7,20.084-45.649c15.018,18.305,45.327,35.5,104.789,15.186-10.132,9.707-16.421,21.017-16.8,34.858a6.681,6.681,0,0,1-6.96,6.488L299.43,345Z" fill="#b0b1ea" fill-rule="evenodd"/>
        </g>
        <g id="Group_14" data-name="Group 14">
          <g id="Group_11" data-name="Group 11">
            <path id="Path_39" data-name="Path 39" d="M318.505,327.738c17.589-33.114,49.055-144.608,44.041-141.367,5.455,1.287,91.471,21.428,94.081,22.262,1.529.489-71.767,91-80.8,121.066a2.636,2.636,0,0,1-2.485,1.9c-23.7.639-31.445-.1-52.344-.272a2.6,2.6,0,0,1-2.174-1.149A2.34,2.34,0,0,1,318.505,327.738Z" fill="#8386d8" fill-rule="evenodd"/>
            <path id="Path_40" data-name="Path 40" d="M318.506,327.738c3.5-6.589,7.549-16.287,11.751-27.561,10.831,9.687,27.019,17.492,50.968,17.087a75.284,75.284,0,0,0-5.4,12.435,2.636,2.636,0,0,1-2.485,1.9c-23.7.639-31.445-.1-52.344-.272a2.6,2.6,0,0,1-2.174-1.149A2.34,2.34,0,0,1,318.506,327.738Z" fill="#4549c4" fill-rule="evenodd"/>
          </g>
          <g id="Group_12" data-name="Group 12">
            <path id="Path_42" data-name="Path 42" d="M372.895,245.916c1.729,4.26,25.914,9.085,31,9.783,5.929-11.958,8.374-18.829,15.957-31.109,3.021-4.895-33.677-16.674-34.035-16.474C383.99,208.173,371.659,242.87,372.895,245.916Z" fill="#fff" fill-rule="evenodd"/>
            <path id="Path_43" data-name="Path 43" d="M402.031,248.4c-.538,5.083-9.9.984-13.245-.48-6.265-2.742-14.766-5.813-7.534-10.529,11.075-7.221,22-.57,20.779,11.009Zm-11.365-25.185c-4.586,7.813,8.93,15.9,13.639,7.155,2.965-5.507.1-9.521-3.364-10.8A8.815,8.815,0,0,0,390.666,223.214Z" fill="#f68ddc" fill-rule="evenodd"/>
          </g>
          <g id="Group_13" data-name="Group 13">
            <path id="Path_44" data-name="Path 44" d="M352.429,253.041c1.913-.491,3.737,1.233,4.227,3.146a3.574,3.574,0,0,1-2.575,4.35c-1.913.49-3.737-1.234-4.227-3.146A3.574,3.574,0,0,1,352.429,253.041Z" fill="#fff" fill-rule="evenodd"/>
            <path id="Path_45" data-name="Path 45" d="M346.132,270.2c1.912-.491,3.623,1.208,4.113,3.121a3.574,3.574,0,0,1-2.576,4.35c-1.912.49-3.622-1.208-4.112-3.122A3.574,3.574,0,0,1,346.132,270.2Z" fill="#fff" fill-rule="evenodd"/>
            <path id="Path_46" data-name="Path 46" d="M340.618,286.1c1.912-.49,3.5,1.133,3.986,3.046a3.575,3.575,0,0,1-2.575,4.35c-1.913.49-3.5-1.133-3.987-3.046A3.575,3.575,0,0,1,340.618,286.1Z" fill="#fff" fill-rule="evenodd"/>
            <path id="Path_47" data-name="Path 47" d="M360.8,260.8a2.358,2.358,0,1,1,2.151-4.2c.064.032,22.207,11.45,36.039,14.439a2.357,2.357,0,0,1-1,4.607C383.541,272.526,360.869,260.833,360.8,260.8Z" fill="#fff" fill-rule="evenodd"/>
            <path id="Path_48" data-name="Path 48" d="M358.42,265.989a1.574,1.574,0,1,1,1.67-2.668c.031.019,8.723,5.459,14.846,7.784a1.575,1.575,0,0,1-1.115,2.946C367.41,271.616,358.452,266.008,358.42,265.989Z" fill="#fff" fill-rule="evenodd"/>
            <path id="Path_49" data-name="Path 49" d="M378.215,274.774a1.576,1.576,0,0,1,1.938-1.1c1.792,1.345,8.017,2.926,10.887,3.127a1.572,1.572,0,0,1-.979,2.987C388.329,279.574,377.4,277.731,378.215,274.774Z" fill="#fff" fill-rule="evenodd"/>
            <path id="Path_50" data-name="Path 50" d="M354.1,276.989a2.361,2.361,0,0,1,2.083-4.237c-.2.823,14.64,8.861,28.849,12.486a2.362,2.362,0,1,1-1.611,4.44C369,285.5,353.9,277.555,354.1,276.989Z" fill="#fff" fill-rule="evenodd"/>
            <path id="Path_51" data-name="Path 51" d="M352.121,282.8a1.573,1.573,0,0,1,1.4-2.816c.018.01,6.53,3.28,12.021,5.831a1.577,1.577,0,1,1-1.328,2.86C358.947,286.224,352.14,282.808,352.121,282.8Z" fill="#fff" fill-rule="evenodd"/>
            <path id="Path_52" data-name="Path 52" d="M348.336,294.148a2.362,2.362,0,0,1,2.925-3.709c10.475,6.466,23.023,9.06,29.587,11.371,1.038.79,1.538,1.757.748,2.8a3.114,3.114,0,0,1-3.609.964C368.84,303.306,360.3,300.972,348.336,294.148Z" fill="#fff" fill-rule="evenodd"/>
            <path id="Path_53" data-name="Path 53" d="M345.583,300.027a1.575,1.575,0,0,1,1.824-2.568c.025.019,9.232,5.4,16.977,7.577a1.574,1.574,0,0,1-.852,3.03C355.252,305.735,345.61,300.045,345.583,300.027Z" fill="#fff" fill-rule="evenodd"/>
          </g>
        </g>
        <g id="Group_15" data-name="Group 15">
          <path id="Path_54" data-name="Path 54" d="M465.082,210.262c9.727,1.051,52.013,6.606,102.862,23.115.948.308,1.236,1.47,1.138,2.462a2.613,2.613,0,0,1-1.6,2.19c-11.215,4.824-57.825,25.469-76.768,32.812a2.568,2.568,0,0,1-1.837.034c-5.469-1.89-34.013-11.713-51.757-16.975a2.672,2.672,0,0,1-1.288-4.277,322.957,322.957,0,0,0,26.67-38.067A2.62,2.62,0,0,1,465.082,210.262Z" fill="#f7f8f6" fill-rule="evenodd"/>
        </g>
        <g id="Group_16" data-name="Group 16">
          <path id="Path_58" data-name="Path 58" d="M432.7,257.507c6.963.626,34.8,7.74,45.228,13.674a2.63,2.63,0,0,1,1.637,2.55c-.141,4.38-55.319,16.772-70.26,58.813a2.647,2.647,0,0,1-2.826,1.759l-23.523-2.736a2.673,2.673,0,0,1-2.123-3.762c4.955-10.874,22.243-45.916,49.234-69.771A2.608,2.608,0,0,1,432.7,257.507Z" fill="#f7f8f6" fill-rule="evenodd"/>
        </g>
      </g>
      <path id="Path_68" data-name="Path 68" d="M199.8,340.531l208.6,8.52-.027.7-208.6-8.518Z" transform="translate(1503.852 1690.797)" fill="#1b222d" fill-rule="evenodd"/>
      <path id="Path_69" data-name="Path 69" d="M169.625,415.237l-14.906,7.58,5.132,7.775s2.471,2.333,8.747,2.3,268.369,6.579,268.369,6.579,5.76.878,8.987-7.745Z" transform="translate(1503.852 1690.797)" fill="#a3a49e" fill-rule="evenodd"/>
      <path id="Path_70" data-name="Path 70" d="M188.658,350.553l-33.5,69.394s-2.91,6.07,5.448,5.885,282.708,8.056,282.708,8.056,6.868-3.426,3.413-10.711-27.652-64.141-27.652-64.141Z" transform="translate(1503.852 1690.797)" fill="#f7f8f6" fill-rule="evenodd"/>
      <path id="Path_71" data-name="Path 71" d="M211.364,355.85l12.177.549a1.238,1.238,0,0,1,1.018.612,1.32,1.32,0,0,1,.107,1.212l-1.655,4.137a1.208,1.208,0,0,1-1.175.787l-15.86-.475a1.239,1.239,0,0,1-1.062-.655,1.319,1.319,0,0,1-.033-1.276l.761-1.5a5.993,5.993,0,0,1,5.722-3.395Zm170.425,32.823,5.568.136h.021l22.858.555a1.19,1.19,0,0,0,1.051-.561,1.31,1.31,0,0,0,.115-1.23l-1.77-4.426-.3-.764-.009-.023h0l-2.278-5.7v0l-.008-.02-.429-1.074-1.225-3.063a1.259,1.259,0,0,0-1.141-.822l-20.147-.6a1.175,1.175,0,0,0-.992.468,1.3,1.3,0,0,0-.246,1.108l.573,2.618h0l.008.035.357,1.627a1.51,1.51,0,0,0,.053.184l.867,3.829-7.545-.067-19.456-.428a1.173,1.173,0,0,0-.945.423,1.282,1.282,0,0,0-.3,1.022l.6,5.042a1.3,1.3,0,0,0,1.236,1.166l23.465.57Zm-108.88.444h0l8.765.213h.018l13.446.326h0l19.062.462a1.21,1.21,0,0,1,.9.417,1.309,1.309,0,0,1,.349.955l-.238,7.263a1.254,1.254,0,0,1-1.272,1.24L293,399.33l-6.739-.214h-.034l-5.441-.172h-.031L244.669,397.8a1.219,1.219,0,0,1-.977-.526,1.325,1.325,0,0,1-.222-1.118l1.625-6.712a1.228,1.228,0,0,1,1.226-.968l26.588.646ZM229.4,356.663l18.791.846a1.228,1.228,0,0,1,.966.534,1.316,1.316,0,0,1,.217,1.11l-.916,3.786a1.23,1.23,0,0,1-1.233.968l-19.494-.583a1.238,1.238,0,0,1-1.032-.606,1.318,1.318,0,0,1-.111-1.22l1.62-4.049a1.206,1.206,0,0,1,1.192-.786Zm24.386,1.1,31.769,1.431a1.221,1.221,0,0,1,.921.474,1.319,1.319,0,0,1,.289,1.024l-.413,3.236a1.242,1.242,0,0,1-1.26,1.113l-32.252-.964a1.229,1.229,0,0,1-.978-.527,1.321,1.321,0,0,1-.223-1.118l.9-3.7a1.226,1.226,0,0,1,1.25-.967Zm37.264,1.678,24.151,1.089a1.215,1.215,0,0,1,.88.426,1.316,1.316,0,0,1,.34.945l-.092,2.8a1.253,1.253,0,0,1-1.27,1.24l-24.461-.731a1.224,1.224,0,0,1-.933-.468,1.317,1.317,0,0,1-.294-1.031l.4-3.153a1.241,1.241,0,0,1,1.276-1.113Zm29.617,1.335,29.4,1.324a1.294,1.294,0,0,1,1.211,1.165l.272,2.281a1.289,1.289,0,0,1-.311,1.026,1.173,1.173,0,0,1-.95.419l-29.757-.89a1.214,1.214,0,0,1-.893-.42,1.312,1.312,0,0,1-.345-.952l.089-2.714a1.252,1.252,0,0,1,1.288-1.239Zm34.92,1.572,21.233.957A1.283,1.283,0,0,1,378,364.337l.412,1.879a1.3,1.3,0,0,1-.247,1.109,1.18,1.18,0,0,1-.992.469l-21.384-.64a1.3,1.3,0,0,1-1.229-1.166l-.261-2.2a1.28,1.28,0,0,1,.317-1.034,1.174,1.174,0,0,1,.962-.412Zm26.878,1.211,15.649.7a6.161,6.161,0,0,1,4.374,2.075,1.332,1.332,0,0,1,.235,1.424,1.2,1.2,0,0,1-1.164.761l-18.75-.56a1.283,1.283,0,0,1-1.208-1.036l-.392-1.793a1.3,1.3,0,0,1,.252-1.115,1.179,1.179,0,0,1,1-.461Zm31.241,29.77.28.7c3.179,7.955,2.886,9.234-5.875,8.956l-17.755-.564a1.282,1.282,0,0,1-1.205-1.035l-1.727-7.882a1.3,1.3,0,0,1,.245-1.105,1.184,1.184,0,0,1,.987-.472l23.9.581a1.26,1.26,0,0,1,1.148.821Zm-28.979,8.914-24.849-.789a1.3,1.3,0,0,1-1.228-1.166l-.908-7.634a1.284,1.284,0,0,1,.307-1.025,1.178,1.178,0,0,1,.947-.421l24.041.584a1.28,1.28,0,0,1,1.214,1.035l1.717,7.839a1.29,1.29,0,0,1-.248,1.108,1.178,1.178,0,0,1-.993.469Zm-30.365-.964L319.4,400.168a1.215,1.215,0,0,1-.891-.42,1.32,1.32,0,0,1-.346-.953l.241-7.3a1.253,1.253,0,0,1,1.262-1.241l33.811.821a1.294,1.294,0,0,1,1.236,1.167l.9,7.593a1.283,1.283,0,0,1-.311,1.027,1.173,1.173,0,0,1-.952.418Zm-115.3-3.659-24.741-.786a1.234,1.234,0,0,1-1.03-.605,1.321,1.321,0,0,1-.111-1.22l2.586-6.462a1.208,1.208,0,0,1,1.167-.787l23.771.576a1.23,1.23,0,0,1,.983.525,1.324,1.324,0,0,1,.225,1.121l-1.615,6.671a1.228,1.228,0,0,1-1.235.967Zm-30.627-.972-11.257-.357c-9.87-.314-7.968-4.815-6.089-8.457a1.2,1.2,0,0,1,1.116-.673l18.825.456a1.233,1.233,0,0,1,1.037.6,1.325,1.325,0,0,1,.114,1.224l-2.569,6.419a1.206,1.206,0,0,1-1.177.787Zm-14.473-14.437,2.349-4.616a1.2,1.2,0,0,1,1.116-.679l17.726.39a1.238,1.238,0,0,1,1.039.6,1.323,1.323,0,0,1,.114,1.225l-1.867,4.667a1.208,1.208,0,0,1-1.168.787l-18.208-.442a1.237,1.237,0,0,1-1.067-.653,1.319,1.319,0,0,1-.034-1.28Zm5.216-10.25,2.858-5.616a1.2,1.2,0,0,1,1.126-.679l16.462.492a1.235,1.235,0,0,1,1.032.6,1.324,1.324,0,0,1,.112,1.221l-2.2,5.5a1.207,1.207,0,0,1-1.165.787l-17.119-.378a1.24,1.24,0,0,1-1.069-.651,1.321,1.321,0,0,1-.035-1.282Zm25.161-4.84-2.183,5.456a1.322,1.322,0,0,0,.115,1.224,1.234,1.234,0,0,0,1.038.6l21.272.47a1.227,1.227,0,0,0,1.223-.968l1.287-5.315a1.321,1.321,0,0,0-.223-1.12,1.222,1.222,0,0,0-.978-.526l-20.376-.609a1.208,1.208,0,0,0-1.175.787Zm-4.442,11.1-1.873,4.68a1.322,1.322,0,0,0,.114,1.223,1.232,1.232,0,0,0,1.036.6l22.883.556a1.227,1.227,0,0,0,1.226-.968l1.149-4.746a1.322,1.322,0,0,0-.225-1.123,1.227,1.227,0,0,0-.986-.523l-22.159-.488a1.208,1.208,0,0,0-1.165.787Zm27.783,7.2,34.709.842a1.239,1.239,0,0,0,1.252-1.113l.62-4.848a1.321,1.321,0,0,0-.3-1.035,1.222,1.222,0,0,0-.94-.464l-34.175-.754a1.227,1.227,0,0,0-1.223.968l-1.153,4.759a1.327,1.327,0,0,0,.225,1.122,1.223,1.223,0,0,0,.983.523Zm40.219.976,26.477.644a1.255,1.255,0,0,0,1.262-1.242l.161-4.927a1.308,1.308,0,0,0-.349-.956,1.213,1.213,0,0,0-.9-.417l-26.016-.574a1.241,1.241,0,0,0-1.25,1.114l-.621,4.859a1.315,1.315,0,0,0,.3,1.034,1.216,1.216,0,0,0,.937.465Zm31.945.775,32.945.8a1.177,1.177,0,0,0,.946-.422,1.282,1.282,0,0,0,.308-1.024l-.6-5.03a1.3,1.3,0,0,0-1.238-1.166l-32.185-.71a1.253,1.253,0,0,0-1.26,1.24l-.162,4.941a1.309,1.309,0,0,0,.349.954,1.207,1.207,0,0,0,.9.417ZM250.2,374.994l33.528.739a1.241,1.241,0,0,0,1.25-1.113l.643-5.028a1.32,1.32,0,0,0-.295-1.031,1.22,1.22,0,0,0-.933-.468l-32.9-.983a1.225,1.225,0,0,0-1.232.967l-1.276,5.271a1.322,1.322,0,0,0,.225,1.123,1.227,1.227,0,0,0,.986.523Zm39.04.861,25.478.562a1.254,1.254,0,0,0,1.26-1.241l.157-4.8a1.306,1.306,0,0,0-.346-.952,1.215,1.215,0,0,0-.892-.42l-25-.748a1.242,1.242,0,0,0-1.259,1.114l-.637,4.984a1.321,1.321,0,0,0,.3,1.036,1.22,1.22,0,0,0,.939.464Zm30.948.683,31.317.69a1.171,1.171,0,0,0,.945-.423,1.283,1.283,0,0,0,.306-1.023l-.539-4.531a1.294,1.294,0,0,0-1.229-1.165l-30.622-.917a1.255,1.255,0,0,0-1.27,1.241l-.156,4.755a1.313,1.313,0,0,0,.349.957,1.219,1.219,0,0,0,.9.416Zm36.826.812a1.3,1.3,0,0,1-1.239-1.167l-.534-4.487a1.286,1.286,0,0,1,.31-1.027,1.177,1.177,0,0,1,.95-.42l21.96.658a1.28,1.28,0,0,1,1.207,1.035l.948,4.324a1.3,1.3,0,0,1-.244,1.105,1.179,1.179,0,0,1-.986.472Z" transform="translate(1503.852 1690.797)" fill="#b0b1ea" fill-rule="evenodd"/>
      <path id="Path_72" data-name="Path 72" d="M270.239,401.649l68.747,1.373a1.368,1.368,0,0,1,1.288,1.033l5.866,20.822a1.171,1.171,0,0,1-.284,1.11,1.346,1.346,0,0,1-1.082.449l-82.828-1.784a1.286,1.286,0,0,1-1.065-.606,1.249,1.249,0,0,1-.113-1.188l8.215-20.411A1.291,1.291,0,0,1,270.239,401.649Z" transform="translate(1503.852 1690.797)" fill="#fbc6ee" fill-rule="evenodd"/>
      <g id="Group_26" data-name="Group 26" transform="matrix(0.839, 0.545, -0.545, 0.839, 2071.121, 1641.448)">
        <path id="Path_92" data-name="Path 92" d="M157.467,385.363l19.508-2.348a3.762,3.762,0,0,1,4.174,3.278L183.5,405.8a3.762,3.762,0,0,1-3.278,4.175l-19.507,2.348a3.764,3.764,0,0,1-4.175-3.279l-2.348-19.506a3.762,3.762,0,0,1,3.278-4.175Zm19.663-1.055-19.507,2.348a2.462,2.462,0,0,0-2.14,2.726l2.348,19.507a2.457,2.457,0,0,0,2.725,2.14l19.507-2.348a2.46,2.46,0,0,0,2.141-2.725l-2.348-19.507a2.46,2.46,0,0,0-2.726-2.141Z" fill="#b0b1ea" fill-rule="evenodd"/>
        <path id="Path_93" data-name="Path 93" d="M153.9,355.76l19.508-2.347a3.761,3.761,0,0,1,4.174,3.277l2.349,19.508a3.764,3.764,0,0,1-3.278,4.175l-19.508,2.347a3.762,3.762,0,0,1-4.175-3.278l-2.348-19.507a3.764,3.764,0,0,1,3.278-4.175Z" fill="#b0b1ea" fill-rule="evenodd"/>
        <path id="Path_94" data-name="Path 94" d="M155.587,369.192a1.806,1.806,0,0,1,2.23-2.841l5.844,4.588,8-10.185a1.806,1.806,0,0,1,2.841,2.231l-8.968,11.422a2.044,2.044,0,0,1-2.863.344Z" fill="#8386d8" fill-rule="evenodd"/>
      </g>
      <g id="Group_28" data-name="Group 28" transform="translate(1300.789 1875.949)">
        <path id="Path_95" data-name="Path 95" d="M497.018,68.337s-81.815,27.77-82.547,32.257S437.509,163.155,444.9,163.3s62.987-18.657,62.987-18.657S501.632,64.485,497.018,68.337Z" fill="#b0b1ea" fill-rule="evenodd"/>
        <path id="Path_96" data-name="Path 96" d="M495.16,76.191s-71.94,23.056-72.577,26.8c-.5,2.943,12.342,33.525,21.021,46.559,1.245-4.535,3.494-12.181,4.725-13.013,1.761-1.193,16.1,5.064,16.1,5.064s10.529-22.448,12.774-25.63c1.735-2.459,18.188.828,25.572,2.448C500.777,99.157,497.673,74.2,495.16,76.191Z" transform="translate(-1.894)" fill="#8386d8" fill-rule="evenodd"/>
        <path id="Path_97" data-name="Path 97" d="M480.232,102.946c-4.373.373-7.722,4.743-7.481,9.76s3.977,8.781,8.35,8.408,7.72-4.742,7.481-9.76S484.6,102.573,480.232,102.946Z" transform="translate(-31.025)" fill="#b0b1ea" fill-rule="evenodd"/>
      </g>
      <path id="Path_103" data-name="Path 103" d="M-58.9,243.155l-4.678-12.622h9.357Z" transform="translate(1841.033 1696.34)" fill="#b1b3e7"/>
      <path id="Path_104" data-name="Path 104" d="M-60.5,238.824l1.6,4.331,1.606-4.331Z" transform="translate(1841.033 1696.34)" fill="#b1b3e7"/>
      <rect id="Rectangle_1" data-name="Rectangle 1" width="4.875" height="8.169" transform="translate(1779.697 1832.859)" fill="#b1b3e7"/>
      <g id="Group_32" data-name="Group 32" transform="translate(1841.033 1696.34)">
        <path id="Path_105" data-name="Path 105" d="M-66.041,181.021A1.018,1.018,0,0,1-67.058,180V149.274l6.606-6.606a1.019,1.019,0,0,1,1.441,0,1.018,1.018,0,0,1,0,1.439l-6.011,6.01V180A1.018,1.018,0,0,1-66.041,181.021Z" fill="#8386d8"/>
      </g>
      <path id="Path_106" data-name="Path 106" d="M-54.22,144.077a2.337,2.337,0,0,0-2.337-2.337h-4.684a2.337,2.337,0,0,0-2.337,2.337v8.169h9.358Z" transform="translate(1841.033 1696.34)" fill="#8386d8"/>
      <rect id="Rectangle_2" data-name="Rectangle 2" width="9.357" height="78.287" transform="translate(1777.456 1848.586)" fill="#b1b3e7"/>
      <g id="Group_43" data-name="Group 43" transform="translate(1410.816 1383.827) rotate(-45)">
        <g id="Group_42" data-name="Group 42" transform="translate(-368.403 -41.719)">
          <path id="Path_113" data-name="Path 113" d="M253.666,604.852l25.241,16.766L235.875,686.4a4.914,4.914,0,0,1-6.812,1.374L212.01,676.446a4.915,4.915,0,0,1-1.375-6.813Z" fill="#f7f8f6"/>
          <g id="Group_41" data-name="Group 41">
            <rect id="Rectangle_12" data-name="Rectangle 12" width="25.552" height="14.749" transform="matrix(-0.833, -0.553, 0.553, -0.833, 239.028, 677.363)" fill="#b0b1ea"/>
            <path id="Path_114" data-name="Path 114" d="M0,0H25.553V14.749H0Z" transform="matrix(-0.833, -0.553, 0.553, -0.833, 248.527, 663.063)" fill="#9295dd"/>
            <path id="Path_115" data-name="Path 115" d="M0,0H25.552V14.748H0Z" transform="translate(258.026 648.761) rotate(-146.405)" fill="#6f73d2"/>
            <path id="Path_116" data-name="Path 116" d="M0,0H25.553V14.749H0Z" transform="translate(267.526 634.461) rotate(-146.406)" fill="#4549c4"/>
          </g>
        </g>
      </g>
      <g id="Group_2" data-name="Group 2" transform="translate(1503.852 1690.797)">
        <path id="Path_3" data-name="Path 3" d="M185.428,146.818a3.9,3.9,0,0,1,5.337,1.436l56.777,98.222-6.769,3.912L184,152.167A3.915,3.915,0,0,1,185.428,146.818Z" fill="#b1b3e7"/>
        <g id="Group_1" data-name="Group 1">
          <path id="Path_4" data-name="Path 4" d="M252.018,262.018l-.739-2.566-1.117.645Z" fill="#b1b3e7"/>
          <path id="Path_5" data-name="Path 5" d="M240.78,250.392l9.381,9.7,1.117-.645-3.729-12.974Z" fill="#b1b3e7"/>
        </g>
      </g>
    </g>
  </g>
</svg>
