<svg id="twitter" data-name="twitter" xmlns="http://www.w3.org/2000/svg" width="24" height="24" viewBox="0 0 24 24">
  <path id="Path_149" data-name="Path 149" d="M896.257,37.333a12,12,0,1,0,12,12A12.013,12.013,0,0,0,896.257,37.333Zm6.793,7.632c0,.036.083.124.009.223a5.342,5.342,0,0,1-1.075,1.164c-.063.048-.151.1-.151.188a8.619,8.619,0,0,1-2.265,6.294,8.459,8.459,0,0,1-8.216,1.922,7.837,7.837,0,0,1-1.588-.636c-.168-.092-.332-.187-.494-.294-.041-.033-.071-.064-.036-.086s.062-.019.19,0a5.6,5.6,0,0,0,2.378-.3,3.635,3.635,0,0,0,1.566-.83c.006-.009.012-.009.018-.018-.1-.024-.208-.024-.312-.043a3.07,3.07,0,0,1-2.293-1.92c-.031-.077,0-.116.079-.1a3.3,3.3,0,0,0,1.092-.033,1.753,1.753,0,0,1-.37-.113,2.959,2.959,0,0,1-1.823-2.358,1.844,1.844,0,0,1-.018-.33c.006-.077.04-.1.108-.058a2.925,2.925,0,0,0,1.112.312c-.125-.1-.241-.2-.354-.312a2.924,2.924,0,0,1-.5-3.455c.055-.083.092-.083.16-.006a8.964,8.964,0,0,0,5.767,2.935c.061.009.067,0,.058-.067a3.086,3.086,0,0,1,.03-1.2,2.94,2.94,0,0,1,.57-1.142,3.06,3.06,0,0,1,.954-.78,2.987,2.987,0,0,1,1.183-.334,2.825,2.825,0,0,1,1.247.2,2.979,2.979,0,0,1,.813.5,1.447,1.447,0,0,1,.146.15.112.112,0,0,0,.116.031,7.235,7.235,0,0,0,1.678-.642.08.08,0,0,1,.075-.006c.025.018.015.049,0,.073a2.6,2.6,0,0,1-.471.856c-.134.167-.47.579-.7.617a5.22,5.22,0,0,0,1.335-.4c.057-.026-.026-.037-.026,0Z" transform="translate(-884.257 -37.333)" fill="#7cc6fa"/>
  <path id="Path_150" data-name="Path 150" d="M904.99,77.614c-.524,0-.041,0,0,0Z" transform="translate(-895.79 -59.904)" fill="#7cc6fa"/>
  <path id="Path_151" data-name="Path 151" d="M906.061,77.642c.564,0,0-.054,0,0Z" transform="translate(-896.531 -59.915)" fill="#7cc6fa"/>
</svg>
